Patient4_TMGait_0pt6_01_right_29_GRF.mot
version=1
nRows=58
nColumns=19
inDegrees=no
endheader
time	F1x	F1y	F1z	M1x	M1y	M1z	F2x	F2y	F2z	M2x	M2y	M2z	EC1x	EC1y	EC1z	EC2x	EC2y	EC2z
34.69	-29.2059	735.3709	52.6354	-262.2107	-61.84	727.8414	5.353	1.6443	9.2873	-1.3755	-9.1052	-3.5599	-0.0592	0.0182	-0.0073	-0.0462	0.0165	0.9585
34.7021	-23.9339	730.4625	54.8945	-260.6829	-61.5447	722.636	3.4398	1.7496	6.2889	-0.65775	-6.0719	-1.7832	-0.0592	0.0182	-0.0073	-0.0462	0.0165	0.9585
34.7143	-19.0996	725.8446	56.3738	-259.2348	-60.6246	716.7108	1.8152	1.8689	3.6985	-0.021808	-3.4517	-0.24368	-0.0592	0.0182	-0.0073	-0.0462	0.0165	0.9585
34.7264	-14.9838	722.2065	56.9909	-258.105	-59.1349	710.7305	0.55732	2.0058	1.6893	0.48828	-1.4171	0.9971	-0.0592	0.0182	-0.0073	-0.0462	0.0165	0.9585
34.7386	-11.6194	720.0695	56.8317	-257.4878	-57.1898	705.3097	-0.31839	2.1389	0.28432	0.86063	0.0067419	1.9089	-0.0592	0.0182	-0.0073	-0.0462	0.0165	0.9585
34.7507	-8.8977	719.6968	56.1197	-257.4896	-54.9716	700.8511	-0.89346	2.2706	-0.59475	1.1095	0.90921	2.5545	-0.0592	0.0182	-0.0073	-0.0462	0.0165	0.9585
34.7629	-6.6047	721.1002	55.0705	-258.129	-52.6131	697.4963	-1.2294	2.3625	-1.0624	1.2476	1.4051	2.9391	-0.0592	0.0182	-0.0073	-0.0462	0.0165	0.9585
34.775	-4.4996	724.0853	53.8929	-259.3456	-50.2231	695.1896	-1.4319	2.3823	-1.2444	1.2877	1.6292	3.0961	-0.0592	0.0182	-0.0073	-0.0462	0.0165	0.9585
34.7871	-2.3601	728.2971	52.7498	-261.0163	-47.8691	693.688	-1.5549	2.2487	-1.2526	1.2245	1.6887	2.9816	-0.0592	0.0182	-0.0073	-0.0462	0.0165	0.9585
34.7993	0.0027661	733.3057	51.765	-262.9819	-45.5966	692.6698	-1.6665	1.8913	-1.1731	1.0459	1.673	2.5774	-0.0592	0.0182	-0.0073	-0.0462	0.0165	0.9585
34.8114	2.7326	738.6632	51.0359	-265.0711	-43.4412	691.7854	-1.7815	1.2087	-1.0625	0.72381	1.6326	1.7998	-0.0592	0.0182	-0.0073	-0.0462	0.0165	0.9585
34.8236	5.8952	743.9582	50.618	-267.1189	-41.4198	690.7227	-1.908	0.12322	-0.95155	0.23143	1.5923	0.58301	-0.0592	0.0182	-0.0073	-0.0462	0.0165	0.9585
34.8357	9.5016	748.8063	50.5586	-268.9666	-39.5633	689.1968	-2.0151	-1.4272	-0.85003	-0.45086	1.5451	-1.1418	-0.0592	0.0182	-0.0073	-0.0462	0.0165	0.9585
34.8479	13.479	752.8273	50.8398	-270.4567	-37.8756	686.9522	-2.0371	-3.42	-0.75714	-1.3113	1.4616	-3.3499	-0.0592	0.0182	-0.0073	-0.0462	0.0165	0.9585
34.86	17.6904	755.5942	51.4509	-271.4161	-36.3992	683.693	-1.8645	-5.7055	-0.66184	-2.2847	1.2852	-5.8731	-0.0592	0.0182	-0.0073	-0.0462	0.0165	0.9585
34.8721	21.9367	756.6837	52.3167	-271.6753	-35.1409	679.1454	-1.3381	-7.93	-0.54534	-3.2217	0.93097	-8.3322	-0.0592	0.0182	-0.0073	-0.0462	0.0165	0.9585
34.8843	26.0401	755.759	53.3875	-271.1021	-34.1283	673.0871	-0.27187	-9.4308	-0.37724	-3.8503	0.29378	-10.004	-0.0592	0.0182	-0.0073	-0.0462	0.0165	0.9585
34.8964	29.8536	752.7023	54.5646	-269.6527	-33.3314	665.4719	1.5491	-9.184	-0.119	-3.7476	-0.74437	-9.7759	-0.0592	0.0182	-0.0073	-0.0462	0.0165	0.9585
34.9086	33.352	747.6478	55.7833	-267.3819	-32.7101	656.4421	4.288	-5.7296	0.26198	-2.3136	-2.2756	-6.0529	-0.0592	0.0182	-0.0073	-0.0462	0.0165	0.9585
34.9207	36.5831	740.9225	56.948	-264.4183	-32.1669	646.3014	8.0311	2.791	0.79361	1.2165	-4.3451	3.1873	-0.0592	0.0182	-0.0073	-0.0462	0.0165	0.9585
34.9329	39.6667	732.863	57.9713	-260.9012	-31.5905	635.3233	12.6379	18.5045	1.4673	7.718	-6.8677	20.2714	-0.0592	0.0182	-0.0073	-0.0462	0.0165	0.9585
34.945	42.7215	723.6414	58.7244	-256.9181	-30.8362	623.635	17.6547	43.4553	2.2298	18.0355	-9.5745	47.4181	-0.0592	0.0182	-0.0073	-0.0462	0.0165	0.9585
34.9571	45.8343	713.0651	59.0386	-252.4374	-29.7417	611.0589	22.0995	79.0358	2.9507	32.7432	-11.9068	86.1474	-0.0592	0.0182	-0.0073	-0.0462	0.0165	0.9585
34.9693	48.9891	700.4951	58.7121	-247.2772	-28.1518	597.0624	24.4173	125.1133	3.4108	51.7835	-12.9892	136.308	-0.0592	0.0182	-0.0073	-0.0462	0.0165	0.9585
34.9814	52.0406	684.838	57.5392	-241.0981	-25.9543	580.7623	22.6004	179.0489	3.3371	74.0587	-11.7311	195.0367	-0.0592	0.0182	-0.0073	-0.0462	0.0165	0.9585
34.9936	54.712	664.6759	55.391	-233.4382	-23.1485	561.0301	15.8312	235.6563	2.181	97.3849	-7.2505	256.7451	-0.0592	0.0182	-0.0073	-0.0462	0.0165	0.9585
35.0057	56.6442	638.5736	52.2572	-223.8155	-19.8596	536.7157	6.0194	288.7744	-0.63929	119.1776	0.21651	314.653	-0.0592	0.0182	-0.0073	-0.0462	0.0165	0.9585
35.0179	57.5111	605.4211	48.342	-211.8454	-16.3784	506.9352	-4.3567	334.2695	-4.9397	137.7278	9.3931	363.9841	-0.0592	0.0182	-0.0073	-0.0462	0.0165	0.9585
35.03	57.0778	564.685	43.9749	-197.3285	-13.05	471.2834	-13.7353	371.9376	-10.1953	152.9409	19.0446	404.2711	-0.0592	0.0182	-0.0073	-0.0462	0.0165	0.9585
35.0421	55.2197	516.4963	39.4898	-180.2908	-10.1841	429.8701	-21.3177	403.9079	-15.5893	165.717	27.9695	437.717	-0.0592	0.0182	-0.0073	-0.0462	0.0165	0.9585
35.0543	51.8409	461.7193	35.056	-161.0179	-7.9423	383.4193	-27.0344	432.9612	-20.6148	177.2203	35.5957	467.351	-0.0592	0.0182	-0.0073	-0.0462	0.0165	0.9585
35.0664	46.9069	401.9399	30.7209	-140.0523	-6.38	333.2214	-31.1442	461.6981	-24.905	188.5282	41.6647	496.0091	-0.0592	0.0182	-0.0073	-0.0462	0.0165	0.9585
35.0786	40.4355	339.4384	26.4586	-118.1801	-5.4665	281.1396	-33.9253	492.1906	-28.5762	200.4711	46.4314	525.9313	-0.0592	0.0182	-0.0073	-0.0462	0.0165	0.9585
35.0907	32.694	277.0014	22.3125	-96.366	-5.1388	229.4032	-35.6679	525.9532	-31.923	213.6188	50.3524	558.7632	-0.0592	0.0182	-0.0073	-0.0462	0.0165	0.9585
35.1029	24.231	217.5981	18.3713	-75.6388	-5.2555	180.3671	-36.6851	563.5148	-35.3913	228.1237	54.0415	595.152	-0.0592	0.0182	-0.0073	-0.0462	0.0165	0.9585
35.115	15.8744	163.8596	14.7841	-56.9076	-5.6199	136.0777	-37.3781	604.0865	-39.314	243.6213	58.0143	634.4061	-0.0592	0.0182	-0.0073	-0.0462	0.0165	0.9585
35.1271	8.435	117.6059	11.6296	-40.8035	-5.9727	97.9574	-38.1398	645.8541	-43.8753	259.3578	62.6187	674.7524	-0.0592	0.0182	-0.0073	-0.0462	0.0165	0.9585
35.1393	2.4866	79.6593	8.9125	-27.6145	-6.0915	66.6428	-39.1958	686.6212	-48.9835	274.4707	67.847	713.977	-0.0592	0.0182	-0.0073	-0.0462	0.0165	0.9585
35.1514	-1.7023	49.996	6.6023	-17.3281	-5.8499	42.1183	-40.5406	724.3739	-54.2445	288.2168	73.3006	750.024	-0.0592	0.0182	-0.0073	-0.0462	0.0165	0.9585
35.1636	-4.1072	28.0026	4.6411	-9.7239	-5.201	23.9018	-41.9862	757.4095	-59.1631	300.0104	78.4196	781.1307	-0.0592	0.0182	-0.0073	-0.0462	0.0165	0.9585
35.1757	-4.9221	12.7317	2.9946	-4.462	-4.2004	11.2227	-43.2913	784.2732	-63.2796	309.375	82.6586	805.7865	-0.0592	0.0182	-0.0073	-0.0462	0.0165	0.9585
35.1879	-4.6328	3.0879	1.6777	-1.1502	-3.044	3.1915	-44.2159	803.7815	-66.2993	315.94	85.6339	822.7787	-0.0592	0.0182	-0.0073	-0.0462	0.0165	0.9585
35.2	-3.7884	-2.1694	0.73804	0.65054	-1.9781	-1.2004	-44.5907	815.2069	-68.0445	319.4955	87.106	831.3861	-0.0592	0.0182	-0.0073	-0.0462	0.0165	0.9585
35.2121	-2.7687	-4.3355	0.1226	1.3918	-1.1031	-3.0057	-44.3082	818.4193	-68.508	320.0438	87.0298	831.4884	-0.0592	0.0182	-0.0073	-0.0462	0.0165	0.9585
35.2243	-1.7967	-4.5392	-0.23918	1.4651	-0.44627	-3.1642	-43.3311	814.0227	-67.7597	317.8479	85.4682	823.715	-0.0592	0.0182	-0.0073	-0.0462	0.0165	0.9585
35.2364	-0.99586	-3.6591	-0.41595	1.1722	0.00094093	-2.4165	-41.6444	803.2905	-65.9929	313.4097	82.6205	809.3659	-0.0592	0.0182	-0.0073	-0.0462	0.0165	0.9585
35.2486	-0.39785	-2.3231	-0.47047	0.72651	0.27197	-1.3046	-39.3141	788.0207	-63.4092	307.4199	78.7186	790.2704	-0.0592	0.0182	-0.0073	-0.0462	0.0165	0.9585
35.2607	-0.00056044	-0.92041	-0.44541	0.26028	0.39752	-0.14678	-36.4154	770.2708	-60.2817	300.6573	74.0701	768.4952	-0.0592	0.0182	-0.0073	-0.0462	0.0165	0.9585
35.2729	0.23443	0.31933	-0.37914	-0.15403	0.42212	0.85568	-33.0618	752.1171	-56.8653	293.8995	68.9769	746.1224	-0.0592	0.0182	-0.0073	-0.0462	0.0165	0.9585
35.285	0.33733	1.3033	-0.29088	-0.4872	0.37556	1.6416	-29.3533	735.4672	-53.436	287.8544	63.7549	725.0296	-0.0592	0.0182	-0.0073	-0.0462	0.0165	0.9585
35.2971	0.3667	2.0155	-0.20348	-0.73375	0.30084	2.1911	-25.4026	721.9687	-50.2032	283.1276	58.6525	706.818	-0.0592	0.0182	-0.0073	-0.0462	0.0165	0.9585
35.3093	0.34385	2.4887	-0.12169	-0.9035	0.2138	2.545	-21.282	712.8382	-47.3585	280.1608	53.8797	692.6419	-0.0592	0.0182	-0.0073	-0.0462	0.0165	0.9585
35.3214	0.30627	2.7681	-0.055727	-1.0121	0.13623	2.7331	-17.0723	708.7574	-45.0255	279.1876	49.5737	683.1442	-0.0592	0.0182	-0.0073	-0.0462	0.0165	0.9585
35.3336	0.26079	2.9133	-0.0070106	-1.0765	0.072224	2.8211	-12.841	709.7816	-43.3047	280.1982	45.8409	678.3627	-0.0592	0.0182	-0.0073	-0.0462	0.0165	0.9585
35.3457	0.21468	2.9678	0.024295	-1.1116	0.022987	2.8417	-8.6361	715.3959	-42.2386	282.9612	42.7263	677.7994	-0.0592	0.0182	-0.0073	-0.0462	0.0165	0.9585
35.3579	0.14899	2.9644	0.043165	-1.1258	-0.02401	2.8342	-4.4942	724.6507	-41.8287	287.0762	40.2345	680.567	-0.0592	0.0182	-0.0073	-0.0462	0.0165	0.9585
35.37	0.060716	2.9035	0.053104	-1.1165	-0.07549	2.7795	-0.45496	736.316	-42.0215	292.041	38.3215	685.5288	-0.0592	0.0182	-0.0073	-0.0462	0.0165	0.9585
35.3821	-0.064276	2.768	0.060246	-1.0728	-0.14449	2.6495	3.3976	749.0402	-42.7114	297.3092	36.9144	691.4799	-0.0592	0.0182	-0.0073	-0.0462	0.0165	0.9585
